# xmcd
#
# Track frame offsets:
#	150
#	19235
#	35417
#	53432
#	65837
#	82592
#	99612
#	116395
#	135895
#	155830
#	171365
#	187667
#	205557
#	226050
#	244009
#	260830
#	278702
#	295542
#	314580
#
# Disc length: 4462 seconds
#
# Revision: 0
# Processed by: cddbd v1.5.2PL0 Copyright (c) Steve Scherf et al.
# Submitted via: audiograbber 1.83.01
#
DISCID=f7116c13
DTITLE=Smokie - the german collection cd1
DYEAR=2000
DGENRE=Pop
TTITLE0=Have You Ever Seen The Rain
TTITLE1=Living Next Door To Alice
TTITLE2=The Wrong Reasons
TTITLE3=Needles And Pins
TTITLE4=Rose-A-Lee
TTITLE5=For A Few Dollars More
TTITLE6=Desperate Measures
TTITLE7=Lay Back In The Arms Of Someone
TTITLE8=Boulevard Of Broken Dreams
TTITLE9=She Rides Wild Horses
TTITLE10=Oh Carol
TTITLE11=Will You Still Love Me Tomorrow
TTITLE12=Rock'N'Roll Rodeo
TTITLE13=Goodbye Yesterday's Heartache
TTITLE14=Mexican Girl
TTITLE15=If You Think You Know How To Love Me
TTITLE16=When The Lightning Strikes
TTITLE17=A Winthers Tale
TTITLE18=Brave New World
EXTD=
EXTT0=
EXTT1=
EXTT2=
EXTT3=
EXTT4=
EXTT5=
EXTT6=
EXTT7=
EXTT8=
EXTT9=
EXTT10=
EXTT11=
EXTT12=
EXTT13=
EXTT14=
EXTT15=
EXTT16=
EXTT17=
EXTT18=
PLAYORDER=
